<?xml version="1.0" encoding="UTF-8"?>
<svg version="1.1" xmlns="http://www.w3.org/2000/svg" width="145" height="151">
<path d="M0 0 C1.49503052 0.00640503 1.49503052 0.00640503 3.02026367 0.01293945 C18.16943859 0.35787601 34.651536 5.86902591 45.8125 16.5 C45.8125 17.16 45.8125 17.82 45.8125 18.5 C46.39 18.7475 46.9675 18.995 47.5625 19.25 C50.14189979 20.68299988 51.87371592 22.28424676 53.8125 24.5 C53.8125 25.16 53.8125 25.82 53.8125 26.5 C55.2975 26.995 55.2975 26.995 56.8125 27.5 C58.41796875 29.4609375 58.41796875 29.4609375 60 31.875 C60.52980469 32.66648438 61.05960938 33.45796875 61.60546875 34.2734375 C62.8125 36.5 62.8125 36.5 62.8125 39.5 C63.4725 39.5 64.1325 39.5 64.8125 39.5 C65.61030561 41.49755909 66.40042425 43.49818885 67.1875 45.5 C67.84878906 47.170625 67.84878906 47.170625 68.5234375 48.875 C71.58836988 57.49396137 72.21454985 65.27071301 72.23803711 74.37866211 C72.24984513 76.53422845 72.29904669 78.68683974 72.34960938 80.84179688 C72.55359434 98.38751835 66.10352137 115.6704545 53.8125 128.5 C53.1525 128.5 52.4925 128.5 51.8125 128.5 C51.56113281 129.08523437 51.30976562 129.67046875 51.05078125 130.2734375 C48.40430981 135.032077 43.66247888 138.61355178 38.8125 140.9375 C38.1525 141.123125 37.4925 141.30875 36.8125 141.5 C36.8125 142.16 36.8125 142.82 36.8125 143.5 C20.03842104 153.07977873 -0.69934349 154.13335555 -19.5 150.4375 C-33.00013841 146.52282572 -46.2781594 137.41541729 -55.1875 126.5 C-55.1875 125.84 -55.1875 125.18 -55.1875 124.5 C-55.8475 124.5 -56.5075 124.5 -57.1875 124.5 C-68.009837 109.86921597 -71.36485274 94.38271367 -71.375 76.625 C-71.38724609 75.50480469 -71.39949219 74.38460937 -71.41210938 73.23046875 C-71.44778855 52.8457656 -63.14482163 34.32818318 -49.1875 19.5 C-42.41143822 13.5 -42.41143822 13.5 -39.1875 13.5 C-39.1875 12.84 -39.1875 12.18 -39.1875 11.5 C-36.58862403 10.21731913 -33.9841461 8.94899232 -31.375 7.6875 C-30.65634766 7.33107422 -29.93769531 6.97464844 -29.19726562 6.60742188 C-19.68553524 2.04011521 -10.54842439 -0.0694747 0 0 Z M-32.1875 20.5 C-32.62680051 23.08427663 -32.62680051 23.08427663 -32.52807617 26.14306641 C-32.52784958 27.32413971 -32.52762299 28.50521301 -32.52738953 29.72207642 C-32.51190567 31.00230682 -32.49642181 32.28253723 -32.48046875 33.6015625 C-32.47622391 34.90829926 -32.47197906 36.21503601 -32.46760559 37.56137085 C-32.45614632 41.03691786 -32.42667049 44.51208927 -32.39349365 47.98748779 C-32.36281569 51.53327257 -32.3489409 55.07911979 -32.33398438 58.625 C-32.30339235 65.58366515 -32.2446774 72.54129865 -32.1875 79.5 C-22.9475 79.5 -13.7075 79.5 -4.1875 79.5 C-4.1875 68.28 -4.1875 57.06 -4.1875 45.5 C-0.5575 45.5 3.0725 45.5 6.8125 45.5 C7.0496875 46.25023437 7.286875 47.00046875 7.53125 47.7734375 C9.31078634 52.94928404 11.31420425 58.0303035 13.3125 63.125 C13.71597656 64.16140625 14.11945313 65.1978125 14.53515625 66.265625 C15.12103516 67.76222656 15.12103516 67.76222656 15.71875 69.2890625 C16.07259766 70.19350098 16.42644531 71.09793945 16.79101562 72.02978516 C17.70750773 74.24610138 18.70802295 76.37233045 19.8125 78.5 C20.4725 78.5 21.1325 78.5 21.8125 78.5 C25.95171773 69.97664041 29.73613924 61.43766777 32.94580078 52.51757812 C34.72458256 47.58791744 34.72458256 47.58791744 35.8125 46.5 C40.7625 46.005 40.7625 46.005 45.8125 45.5 C45.8125 70.25 45.8125 95 45.8125 120.5 C46.8025 119.84 47.7925 119.18 48.8125 118.5 C48.8125 117.84 48.8125 117.18 48.8125 116.5 C49.4725 116.5 50.1325 116.5 50.8125 116.5 C60.57918605 98.44809151 66.14326843 78.99983951 60.63671875 58.42578125 C58.29396936 51.07320083 54.99178633 43.99083851 50.8125 37.5 C50.1525 37.5 49.4925 37.5 48.8125 37.5 C48.4103125 36.2934375 48.4103125 36.2934375 48 35.0625 C47.4121875 33.7940625 47.4121875 33.7940625 46.8125 32.5 C45.3275 32.005 45.3275 32.005 43.8125 31.5 C43.53792969 30.9121875 43.26335937 30.324375 42.98046875 29.71875 C39.32161719 22.76815573 27.52728073 16.05285625 20.19140625 13.63671875 C15.11340011 12.18290695 10.08179747 10.97902704 4.8125 10.5 C4.12414062 10.43554688 3.43578125 10.37109375 2.7265625 10.3046875 C-9.4783016 9.69647168 -22.11854536 13.78736357 -32.1875 20.5 Z M-42.1875 28.5 C-48.11097624 34.93749691 -52.74170545 41.47257492 -56.1875 49.5 C-56.55617188 50.30050781 -56.92484375 51.10101563 -57.3046875 51.92578125 C-64.3148057 67.96718311 -63.52752747 85.60402881 -57.31103516 101.78076172 C-55.45580181 106.11728602 -53.37966956 110.32502538 -51.1875 114.5 C-50.5275 114.5 -49.8675 114.5 -49.1875 114.5 C-48.5275 116.15 -47.8675 117.8 -47.1875 119.5 C-46.5275 119.5 -45.8675 119.5 -45.1875 119.5 C-44.960625 120.056875 -44.73375 120.61375 -44.5 121.1875 C-42.81199964 124.16159588 -40.72073483 126.22008865 -38.1875 128.5 C-37.5275 128.5 -36.8675 128.5 -36.1875 128.5 C-36.1875 129.16 -36.1875 129.82 -36.1875 130.5 C-21.63560812 141.13290638 -5.61401405 144.23399877 12.125 142 C20.82374248 140.22945949 32.10877859 135.50721796 37.8125 128.5 C38.39179477 125.27430249 38.39179477 125.27430249 38.26660156 121.62011719 C38.26718567 120.93678314 38.26776978 120.2534491 38.26837158 119.54940796 C38.265592 117.29804101 38.23450908 115.04800968 38.203125 112.796875 C38.19566209 111.233182 38.18996939 109.66947963 38.18597412 108.10577393 C38.17072154 103.99558567 38.1314436 99.88596529 38.0871582 95.77600098 C38.04619701 91.57991213 38.02796133 87.38373127 38.0078125 83.1875 C37.96494842 74.9580731 37.89670233 66.72910725 37.8125 58.5 C35.13152662 59.84048669 35.04171943 61.03310389 34 63.8125 C33.47986328 65.16214844 33.47986328 65.16214844 32.94921875 66.5390625 C32.57410156 67.51617187 32.19898437 68.49328125 31.8125 69.5 C29.18327088 76.09393971 26.53007992 82.44172162 22.8125 88.5 C18.22010533 88.00414343 18.22010533 88.00414343 16.4765625 85.84765625 C16.13367188 85.09355469 15.79078125 84.33945313 15.4375 83.5625 C15.03144531 82.67820313 14.62539062 81.79390625 14.20703125 80.8828125 C12.10776444 75.79047341 10.12259604 70.65293805 8.22314453 65.48266602 C6.95633526 61.24348861 6.95633526 61.24348861 3.8125 58.5 C3.64066111 61.06224066 3.47501065 63.62466306 3.3125 66.1875 C3.26480469 66.88939453 3.21710938 67.59128906 3.16796875 68.31445312 C2.74688289 75.08190442 2.8125 81.67198167 2.8125 88.5 C-11.3775 88.5 -25.5675 88.5 -40.1875 88.5 C-40.5175 68.7 -40.8475 48.9 -41.1875 28.5 C-41.5175 28.5 -41.8475 28.5 -42.1875 28.5 Z " fill="#E9E9E9" transform="translate(73.1875,-0.5)"/>
</svg>
